<?xml version="1.0" encoding="UTF-8"?>
<!-- Generator: Adobe Illustrator 16.0.0, SVG Export Plug-In . SVG Version: 6.00 Build 0)  -->
<!DOCTYPE svg PUBLIC "-//W3C//DTD SVG 1.1//EN" "http://www.w3.org/Graphics/SVG/1.1/DTD/svg11.dtd">
<svg version="1.1" id="Calque_1" xmlns="http://www.w3.org/2000/svg" xmlns:xlink="http://www.w3.org/1999/xlink" x="0px" y="0px" width="325.781px" height="151.965px" viewBox="0 0 325.781 151.965" enable-background="new 0 0 325.781 151.965" xml:space="preserve">
<rect fill="#FBF5DC" width="151.965" height="151.965"/>
<rect x="151.65" fill="#B31919" width="151.965" height="151.965"/>
<g>
	<g>
		<path fill="#B31919" d="M53.604,40.301c-1.957,0-4.993,0.667-6.771,1.485C46.689,41.852,32.5,48.493,32.5,56.744    c0,8.252,14.189,14.892,14.333,14.957c1.779,0.82,4.815,1.486,6.771,1.486h0.597c1.802,0,2.914,0.386,3.493,1.212    c0.524,0.746,0.524,1.718,0.521,2.747l0.009,26.521c0,1.791,1.457,3.25,3.247,3.25h29.017c1.792,0,3.25-1.459,3.25-3.25    l0.005-26.463c0.001-1.883,0.002-4.017,4.018-4.017h0.599c1.956,0,4.993-0.666,6.77-1.486c0.144-0.065,14.331-6.705,14.331-14.957    c0-8.256-14.187-14.891-14.331-14.957c-1.776-0.818-4.814-1.486-6.77-1.486H84.905c-1.791,0-3.25,1.457-3.25,3.248v47.918    c0,3.564-0.17,4.018-3.059,4.018l-4.274-0.002c-3.791,0-4.016-0.225-4.016-4.016V43.549c0-1.791-1.456-3.248-3.249-3.248H53.604    L53.604,40.301z"/>
	</g>
	<g>
		<path fill="#B31919" d="M60.411,116.104c-1.296,0-2.352,1.055-2.352,2.352v6.98c0,1.297,1.056,2.352,2.352,2.352h30.995    c1.297,0,2.352-1.055,2.352-2.352v-6.98c0-1.297-1.054-2.352-2.352-2.352H60.411L60.411,116.104z"/>
	</g>
</g>
<g>
	<path fill="#FBF5DC" d="M180.299,38.835c-2.215,0-3.294-1.42-3.294-3.55V18.617h1.448v16.64c0,1.534,0.483,2.3,2.103,2.3h0.993   v1.278H180.299z"/>
	<path fill="#FBF5DC" d="M185.719,32.304c0,3.464,1.562,5.396,4.46,5.396c1.617,0,2.611-0.483,3.775-1.647l1.079,0.853   c-1.392,1.392-2.669,2.102-4.941,2.102c-3.776,0-5.821-2.442-5.821-7.014c0-4.401,2.045-7.014,5.48-7.014   c3.408,0,5.48,2.499,5.48,6.673v0.653L185.719,32.304L185.719,32.304z M193.301,28.556c-0.596-1.419-1.987-2.3-3.55-2.3   s-2.953,0.88-3.549,2.3c-0.342,0.852-0.426,1.278-0.483,2.584h8.065C193.728,29.833,193.642,29.408,193.301,28.556z"/>
	<path fill="#FBF5DC" d="M204.688,39.006c-2.385,0-4.146-0.625-5.537-1.959l0.994-0.994c1.078,1.136,2.526,1.675,4.485,1.675   c2.669,0,4.117-0.937,4.117-2.783c0-1.42-0.823-2.13-2.612-2.3l-2.271-0.199c-2.755-0.227-4.117-1.448-4.117-3.578   c0-2.357,1.931-3.89,4.912-3.89c1.874,0,3.606,0.54,4.799,1.448l-0.965,0.965c-1.052-0.767-2.329-1.164-3.834-1.164   c-2.243,0-3.493,0.965-3.493,2.641c0,1.42,0.854,2.13,2.783,2.3l2.215,0.199c2.271,0.199,4.004,0.909,4.004,3.578   C210.168,37.444,208.039,39.006,204.688,39.006z"/>
	<path fill="#FBF5DC" d="M187.257,67.36c-0.824,0.823-2.158,1.334-3.605,1.334c-1.506,0-2.612-0.397-3.578-1.477v6.73h-3.691V53.729   h3.578v1.391c1.021-1.136,2.129-1.562,3.691-1.562c1.447,0,2.781,0.511,3.605,1.334c1.477,1.477,1.506,4.004,1.506,6.219   C188.763,63.326,188.733,65.883,187.257,67.36z M182.571,56.881c-2.215,0-2.498,1.817-2.498,4.231c0,2.414,0.283,4.26,2.498,4.26   c2.216,0,2.5-1.846,2.5-4.26C185.071,58.698,184.787,56.881,182.571,56.881z"/>
	<path fill="#FBF5DC" d="M200.435,68.524v-1.278c-0.994,0.994-1.933,1.42-3.636,1.42c-1.676,0-2.896-0.426-3.776-1.306   c-0.795-0.824-1.222-2.017-1.222-3.323c0-2.357,1.618-4.288,5.056-4.288h3.492v-0.738c0-1.619-0.795-2.329-2.754-2.329   c-1.421,0-2.074,0.341-2.841,1.221l-2.356-2.3c1.447-1.59,2.867-2.044,5.338-2.044c4.146,0,6.305,1.76,6.305,5.225v9.74H200.435z    M200.349,62.277h-2.926c-1.334,0-2.072,0.625-2.072,1.675c0,1.022,0.682,1.704,2.129,1.704c1.022,0,1.677-0.085,2.33-0.71   c0.396-0.369,0.539-0.965,0.539-1.874V62.277L200.349,62.277z"/>
	<path fill="#FBF5DC" d="M213.438,68.694c-2.328,0-4.43-0.255-6.304-2.13l2.413-2.414c1.223,1.221,2.812,1.392,3.947,1.392   c1.277,0,2.611-0.426,2.611-1.534c0-0.738-0.396-1.25-1.562-1.363l-2.328-0.228c-2.67-0.255-4.315-1.419-4.315-4.146   c0-3.067,2.697-4.714,5.707-4.714c2.301,0,4.23,0.397,5.65,1.732l-2.271,2.3c-0.853-0.767-2.157-0.994-3.437-0.994   c-1.477,0-2.101,0.682-2.101,1.42c0,0.54,0.227,1.165,1.533,1.278l2.328,0.227c2.924,0.284,4.4,1.846,4.4,4.345   C219.714,67.132,216.933,68.694,213.438,68.694z"/>
	<path fill="#FBF5DC" d="M228.062,68.694c-2.328,0-4.431-0.255-6.305-2.13l2.413-2.414c1.222,1.221,2.812,1.392,3.947,1.392   c1.278,0,2.612-0.426,2.612-1.534c0-0.738-0.397-1.25-1.562-1.363l-2.328-0.228c-2.67-0.255-4.316-1.419-4.316-4.146   c0-3.067,2.697-4.714,5.709-4.714c2.3,0,4.229,0.397,5.649,1.732l-2.271,2.3c-0.854-0.767-2.158-0.994-3.438-0.994   c-1.477,0-2.101,0.682-2.101,1.42c0,0.54,0.227,1.165,1.532,1.278l2.328,0.227c2.926,0.284,4.401,1.846,4.401,4.345   C234.336,67.132,231.554,68.694,228.062,68.694z"/>
	<path fill="#FBF5DC" d="M240.896,62.277c0,1.902,1.164,3.294,3.237,3.294c1.618,0,2.413-0.455,3.351-1.392l2.244,2.187   c-1.506,1.505-2.953,2.329-5.623,2.329c-3.492,0-6.844-1.59-6.844-7.582c0-4.827,2.612-7.553,6.445-7.553   c4.118,0,6.445,3.01,6.445,7.071v1.647L240.896,62.277L240.896,62.277z M246.177,58.159c-0.396-0.88-1.221-1.533-2.471-1.533   c-1.249,0-2.072,0.653-2.471,1.533c-0.228,0.54-0.312,0.937-0.34,1.59h5.621C246.49,59.096,246.405,58.699,246.177,58.159z    M244.701,51.373h-2.472l1.817-4.828h3.892L244.701,51.373z"/>
	<path fill="#FBF5DC" d="M258.985,68.694c-2.328,0-4.43-0.255-6.305-2.13l2.413-2.414c1.222,1.221,2.812,1.392,3.947,1.392   c1.278,0,2.612-0.426,2.612-1.534c0-0.738-0.397-1.25-1.562-1.363l-2.328-0.228c-2.67-0.255-4.316-1.419-4.316-4.146   c0-3.067,2.697-4.714,5.709-4.714c2.3,0,4.229,0.397,5.65,1.732l-2.271,2.3c-0.854-0.767-2.158-0.994-3.438-0.994   c-1.477,0-2.101,0.682-2.101,1.42c0,0.54,0.228,1.165,1.532,1.278l2.328,0.227c2.926,0.284,4.401,1.846,4.401,4.345   C265.26,67.132,262.478,68.694,258.985,68.694z"/>
	<path fill="#FBF5DC" d="M185.44,98.211v-1.76c-1.193,1.59-2.527,1.93-4.062,1.93c-1.419,0-2.641-0.481-3.352-1.191   c-1.392-1.393-1.76-3.663-1.76-5.82c0-2.158,0.368-4.431,1.76-5.822c0.711-0.709,1.933-1.191,3.352-1.191   c1.534,0,2.868,0.341,4.062,1.932v-8.293h1.447v20.219h-1.447V98.211z M181.578,85.633c-3.351,0-3.862,2.896-3.862,5.736   c0,2.84,0.512,5.735,3.862,5.735s3.862-2.896,3.862-5.735C185.44,88.529,184.929,85.633,181.578,85.633z"/>
	<path fill="#FBF5DC" d="M201.001,98.211v-1.362c-1.165,1.164-2.243,1.532-4.175,1.532c-2.017,0-3.151-0.34-4.032-1.248   c-0.625-0.653-0.994-1.647-0.994-2.67c0-2.498,1.789-3.946,4.771-3.946h4.43v-1.533c0-2.187-1.079-3.351-3.861-3.351   c-1.932,0-2.926,0.482-3.777,1.732l-1.051-0.91c1.164-1.619,2.612-2.101,4.828-2.101c3.605,0,5.311,1.619,5.311,4.485v9.371   H201.001z M201.001,91.681h-4.26c-2.357,0-3.493,0.938-3.493,2.754c0,1.817,1.106,2.67,3.578,2.67c1.25,0,2.442-0.112,3.407-1.051   c0.512-0.482,0.768-1.334,0.768-2.612V91.681L201.001,91.681z"/>
	<path fill="#FBF5DC" d="M217.5,98.211v-8.489c0-2.642-1.335-4.089-3.776-4.089c-2.442,0-3.861,1.505-3.861,4.089v8.489h-1.448   V84.525h1.448v1.619c1.021-1.192,2.385-1.789,4.031-1.789c1.533,0,2.754,0.454,3.635,1.306c0.908,0.881,1.421,2.187,1.421,3.805   v8.746H217.5z"/>
	<path fill="#FBF5DC" d="M229.058,98.381c-2.386,0-4.146-0.623-5.537-1.959l0.994-0.993c1.078,1.137,2.526,1.676,4.485,1.676   c2.669,0,4.117-0.938,4.117-2.782c0-1.421-0.823-2.13-2.612-2.301l-2.271-0.197c-2.754-0.229-4.116-1.449-4.116-3.578   c0-2.357,1.931-3.892,4.911-3.892c1.875,0,3.606,0.54,4.8,1.448l-0.966,0.965c-1.051-0.768-2.328-1.164-3.834-1.164   c-2.242,0-3.492,0.965-3.492,2.641c0,1.42,0.854,2.129,2.783,2.301l2.215,0.197c2.271,0.199,4.004,0.909,4.004,3.578   C234.538,96.821,232.408,98.381,229.058,98.381z"/>
	<path fill="#FBF5DC" d="M250.496,98.211c-2.215,0-3.294-1.42-3.294-3.549V77.995h1.447v16.639c0,1.533,0.483,2.302,2.103,2.302   h0.994v1.276H250.496z"/>
	<path fill="#FBF5DC" d="M255.915,91.681c0,3.465,1.562,5.396,4.459,5.396c1.618,0,2.611-0.482,3.775-1.646l1.08,0.852   c-1.393,1.393-2.67,2.102-4.941,2.102c-3.775,0-5.821-2.44-5.821-7.014c0-4.4,2.046-7.014,5.479-7.014   c3.408,0,5.481,2.499,5.481,6.673v0.653L255.915,91.681L255.915,91.681z M263.497,87.933c-0.596-1.42-1.987-2.3-3.55-2.3   s-2.953,0.88-3.55,2.3c-0.34,0.853-0.426,1.276-0.482,2.584h8.064C263.922,89.209,263.837,88.786,263.497,87.933z"/>
	<path fill="#FBF5DC" d="M187.257,126.738c-0.824,0.822-2.158,1.335-3.605,1.335c-1.506,0-2.612-0.398-3.578-1.478v6.729h-3.691   v-20.219h3.578v1.391c1.021-1.135,2.129-1.561,3.691-1.561c1.447,0,2.781,0.51,3.605,1.334c1.477,1.477,1.506,4.004,1.506,6.219   S188.733,125.26,187.257,126.738z M182.571,116.258c-2.215,0-2.498,1.816-2.498,4.23s0.283,4.26,2.498,4.26   c2.216,0,2.5-1.846,2.5-4.26S184.787,116.258,182.571,116.258z"/>
	<path fill="#FBF5DC" d="M200.888,117.139c-0.568-0.567-1.051-0.881-1.96-0.881c-1.136,0-2.385,0.853-2.385,2.727v8.917h-3.69   v-14.795h3.605v1.42c0.71-0.853,2.129-1.59,3.721-1.59c1.447,0,2.471,0.369,3.491,1.392L200.888,117.139z"/>
	<path fill="#FBF5DC" d="M208.354,121.654c0,1.902,1.164,3.296,3.237,3.296c1.618,0,2.413-0.455,3.351-1.394l2.244,2.188   c-1.506,1.504-2.953,2.328-5.623,2.328c-3.492,0-6.844-1.591-6.844-7.582c0-4.828,2.612-7.554,6.445-7.554   c4.118,0,6.445,3.011,6.445,7.069v1.646L208.354,121.654L208.354,121.654z M213.636,117.538c-0.396-0.881-1.221-1.533-2.471-1.533   c-1.249,0-2.072,0.652-2.471,1.533c-0.228,0.539-0.312,0.938-0.34,1.59h5.621C213.949,118.474,213.864,118.077,213.636,117.538z    M212.16,110.75h-2.472l1.817-4.828h3.892L212.16,110.75z"/>
	<path fill="#FBF5DC" d="M226.444,128.073c-2.328,0-4.43-0.257-6.305-2.131l2.413-2.413c1.222,1.222,2.812,1.392,3.947,1.392   c1.278,0,2.612-0.426,2.612-1.533c0-0.738-0.397-1.25-1.562-1.363l-2.328-0.227c-2.67-0.256-4.315-1.42-4.315-4.146   c0-3.066,2.696-4.713,5.708-4.713c2.3,0,4.229,0.396,5.65,1.73l-2.271,2.301c-0.854-0.766-2.158-0.994-3.438-0.994   c-1.477,0-2.101,0.682-2.101,1.42c0,0.54,0.228,1.165,1.533,1.277l2.327,0.229c2.926,0.283,4.401,1.846,4.401,4.344   C232.719,126.508,229.937,128.073,226.444,128.073z"/>
	<path fill="#FBF5DC" d="M239.278,121.654c0,1.902,1.164,3.296,3.238,3.296c1.617,0,2.412-0.455,3.351-1.394l2.243,2.188   c-1.506,1.504-2.953,2.328-5.623,2.328c-3.492,0-6.844-1.591-6.844-7.582c0-4.828,2.612-7.554,6.445-7.554   c4.118,0,6.446,3.011,6.446,7.069v1.646L239.278,121.654L239.278,121.654z M244.56,117.538c-0.396-0.881-1.221-1.533-2.471-1.533   c-1.249,0-2.072,0.652-2.47,1.533c-0.228,0.539-0.312,0.938-0.341,1.59h5.621C244.873,118.474,244.788,118.077,244.56,117.538z"/>
	<path fill="#FBF5DC" d="M261.116,127.902v-8.944c0-2.017-1.277-2.697-2.441-2.697c-1.165,0-2.471,0.682-2.471,2.697v8.944h-3.691   v-14.795h3.606v1.363c0.965-1.023,2.327-1.533,3.69-1.533c1.478,0,2.67,0.481,3.492,1.306c1.193,1.192,1.506,2.584,1.506,4.202   v9.457H261.116z"/>
	<path fill="#FBF5DC" d="M273.979,127.902c-3.011,0-4.287-2.131-4.287-4.231v-7.326h-1.562v-2.811h1.562v-4.373h3.69v4.373h2.612   v2.811h-2.612v7.1c0,0.852,0.397,1.335,1.277,1.335h1.335v3.124L273.979,127.902L273.979,127.902z"/>
</g>
<g>
	<path fill="#B31919" d="M314.022,78.098V75.94h9.063v-4.177h1.695v6.335H314.022z"/>
	<path fill="#B31919" d="M314.022,63.681v-2.435l10.759-4.222v2.388l-2.467,0.926v4.36l2.467,0.94v2.235L314.022,63.681z    M316.181,62.494v0.032l4.439,1.556v-3.144L316.181,62.494z"/>
	<path fill="#B31919" d="M314.022,52.007v-3.761c0-1.387,0.4-3.467,2.759-3.467c1.279,0,2.174,0.863,2.405,2.143h0.03   c0.14-1.464,1.125-2.467,2.451-2.467c2.712,0,3.113,2.435,3.113,3.792v3.761H314.022z M318.369,49.849v-0.877   c0-0.91-0.199-2.035-1.31-2.035c-1.248,0-1.341,1.094-1.341,2.081v0.832H318.369z M323.086,49.849v-1.017   c0-1.002-0.247-2.22-1.495-2.22c-1.403,0-1.618,1.14-1.618,2.22v1.017H323.086z"/>
	<path fill="#B31919" d="M314.022,38.962v-6.35h1.696v4.191h2.65v-3.837h1.696v3.837h3.021v-4.223h1.695v6.381H314.022z"/>
	<path fill="#B31919" d="M319.187,24.329l-5.164,3.206v-2.497l3.839-2.25l-3.839-2.295v-2.313l5.164,3.237l5.595-3.529v2.542   l-4.192,2.481l4.192,2.513v2.435L319.187,24.329z"/>
</g>
</svg>